<mxfile host="app.diagrams.net" modified="2021-02-22T18:58:11.813Z" agent="5.0 (Windows NT 10.0; Win64; x64) AppleWebKit/537.36 (KHTML, like Gecko) Chrome/88.0.4324.182 Safari/537.36" etag="ZrXcKDDZMDWIMOnZOSeN" version="14.4.2" type="github">
  <diagram id="35EU4CpWNUB5tfdfUFwy" name="Page-1">
    <mxGraphModel dx="2062" dy="1122" grid="1" gridSize="10" guides="1" tooltips="1" connect="1" arrows="1" fold="1" page="1" pageScale="1" pageWidth="850" pageHeight="1100" math="0" shadow="0">
      <root>
        <mxCell id="0" />
        <mxCell id="1" parent="0" />
        <mxCell id="YUXUaKhBxxFk_7d03qnZ-1" value="&lt;font style=&quot;font-size: 14px&quot;&gt;Client Applications (Software)&lt;/font&gt;" style="rounded=1;whiteSpace=wrap;html=1;" vertex="1" parent="1">
          <mxGeometry x="220" y="200" width="390" height="50" as="geometry" />
        </mxCell>
        <mxCell id="YUXUaKhBxxFk_7d03qnZ-2" value="" style="rounded=0;whiteSpace=wrap;html=1;gradientColor=#FFEDF4;" vertex="1" parent="1">
          <mxGeometry x="220" y="280" width="400" height="250" as="geometry" />
        </mxCell>
        <mxCell id="YUXUaKhBxxFk_7d03qnZ-3" value="Database Management Software" style="text;html=1;strokeColor=none;fillColor=none;align=center;verticalAlign=middle;whiteSpace=wrap;rounded=0;fontStyle=1" vertex="1" parent="1">
          <mxGeometry x="220" y="280" width="110" height="60" as="geometry" />
        </mxCell>
        <mxCell id="YUXUaKhBxxFk_7d03qnZ-4" value="&lt;font style=&quot;font-size: 14px&quot;&gt;Process Queries&lt;/font&gt;" style="shape=process;whiteSpace=wrap;html=1;backgroundOutline=1;fillColor=#ffffff;gradientColor=#FFEDF4;" vertex="1" parent="1">
          <mxGeometry x="330" y="320" width="230" height="60" as="geometry" />
        </mxCell>
        <mxCell id="YUXUaKhBxxFk_7d03qnZ-5" value="&lt;font style=&quot;font-size: 14px&quot;&gt;Access Physical Data&lt;/font&gt;" style="shape=process;whiteSpace=wrap;html=1;backgroundOutline=1;fillColor=#ffffff;gradientColor=#FFEDF4;" vertex="1" parent="1">
          <mxGeometry x="330" y="437" width="230" height="60" as="geometry" />
        </mxCell>
        <mxCell id="YUXUaKhBxxFk_7d03qnZ-7" value="&lt;font style=&quot;font-size: 14px&quot;&gt;Physical Data&lt;/font&gt;" style="shape=card;whiteSpace=wrap;html=1;fillColor=#B5B5B5;" vertex="1" parent="1">
          <mxGeometry x="400" y="570" width="80" height="100" as="geometry" />
        </mxCell>
        <mxCell id="YUXUaKhBxxFk_7d03qnZ-8" value="User" style="shape=umlActor;verticalLabelPosition=bottom;verticalAlign=top;html=1;outlineConnect=0;fillColor=#ffffff;gradientColor=#FFEDF4;" vertex="1" parent="1">
          <mxGeometry x="400" y="70" width="30" height="60" as="geometry" />
        </mxCell>
        <mxCell id="YUXUaKhBxxFk_7d03qnZ-9" value="" style="endArrow=classic;html=1;entryX=0.5;entryY=0;entryDx=0;entryDy=0;" edge="1" parent="1" target="YUXUaKhBxxFk_7d03qnZ-1">
          <mxGeometry width="50" height="50" relative="1" as="geometry">
            <mxPoint x="415" y="150" as="sourcePoint" />
            <mxPoint x="460" y="140" as="targetPoint" />
          </mxGeometry>
        </mxCell>
        <mxCell id="YUXUaKhBxxFk_7d03qnZ-10" value="" style="endArrow=classic;html=1;entryX=0.474;entryY=0.033;entryDx=0;entryDy=0;entryPerimeter=0;exitX=0.562;exitY=0.8;exitDx=0;exitDy=0;exitPerimeter=0;" edge="1" parent="1" source="YUXUaKhBxxFk_7d03qnZ-1" target="YUXUaKhBxxFk_7d03qnZ-4">
          <mxGeometry width="50" height="50" relative="1" as="geometry">
            <mxPoint x="420" y="259.28932188134524" as="sourcePoint" />
            <mxPoint x="420" y="209.28932188134524" as="targetPoint" />
          </mxGeometry>
        </mxCell>
        <mxCell id="YUXUaKhBxxFk_7d03qnZ-12" value="" style="endArrow=classic;html=1;exitX=0.5;exitY=1;exitDx=0;exitDy=0;" edge="1" parent="1" source="YUXUaKhBxxFk_7d03qnZ-4" target="YUXUaKhBxxFk_7d03qnZ-5">
          <mxGeometry width="50" height="50" relative="1" as="geometry">
            <mxPoint x="440" y="400" as="sourcePoint" />
            <mxPoint x="490" y="350" as="targetPoint" />
          </mxGeometry>
        </mxCell>
        <mxCell id="YUXUaKhBxxFk_7d03qnZ-14" value="" style="endArrow=classic;startArrow=classic;html=1;entryX=0.5;entryY=1;entryDx=0;entryDy=0;" edge="1" parent="1" source="YUXUaKhBxxFk_7d03qnZ-7" target="YUXUaKhBxxFk_7d03qnZ-5">
          <mxGeometry width="50" height="50" relative="1" as="geometry">
            <mxPoint x="420" y="570" as="sourcePoint" />
            <mxPoint x="470" y="520" as="targetPoint" />
          </mxGeometry>
        </mxCell>
        <mxCell id="YUXUaKhBxxFk_7d03qnZ-15" value="Database Management System Overview" style="text;html=1;strokeColor=none;fillColor=none;align=center;verticalAlign=middle;whiteSpace=wrap;rounded=0;fontStyle=1;fontSize=15;" vertex="1" parent="1">
          <mxGeometry x="285" y="710" width="310" height="20" as="geometry" />
        </mxCell>
      </root>
    </mxGraphModel>
  </diagram>
</mxfile>
